<?xml version="1.0" standalone="no"?>
<!DOCTYPE svg PUBLIC "-//W3C//DTD SVG 20010904//EN"
 "http://www.w3.org/TR/2001/REC-SVG-20010904/DTD/svg10.dtd">
<svg version="1.0" xmlns="http://www.w3.org/2000/svg"
 width="512.000000pt" height="512.000000pt" viewBox="0 0 512.000000 512.000000"
 preserveAspectRatio="xMidYMid meet">

<g transform="translate(0.000000,512.000000) scale(0.100000,-0.100000)"
fill="#000000" stroke="none">
<path d="M0 3770 l0 -1350 305 0 305 0 0 -225 0 -225 150 0 150 0 0 225 0 225
300 0 300 0 0 -225 0 -225 150 0 150 0 0 225 0 225 150 0 150 0 0 -1060 0
-1060 -225 0 -225 0 0 -150 0 -150 900 0 900 0 0 150 0 150 -225 0 -225 0 0
1060 0 1060 150 0 150 0 0 -225 0 -225 150 0 150 0 0 225 0 225 300 0 300 0 0
-225 0 -225 150 0 150 0 0 225 0 225 305 0 305 0 0 1350 0 1350 -2560 0 -2560
0 0 -1350z m1418 945 c37 -313 191 -589 436 -780 190 -148 395 -241 702 -319
383 -97 700 -272 914 -504 100 -107 219 -288 244 -369 l7 -23 -1710 0 -1711 0
0 1050 0 1050 553 0 553 0 12 -105z m2057 63 c29 -190 79 -349 156 -498 185
-353 511 -629 881 -744 92 -29 260 -66 299 -66 5 0 9 -169 9 -375 l0 -375
-388 0 -388 0 -18 53 c-90 255 -301 542 -531 722 -238 186 -519 321 -843 406
-424 111 -645 241 -800 473 -75 112 -142 308 -142 416 l0 30 879 0 879 0 7
-42z m1345 -483 l0 -525 -22 4 c-13 3 -50 10 -83 17 -337 65 -665 321 -828
644 -34 69 -82 208 -96 280 -7 33 -14 70 -17 83 l-4 22 525 0 525 0 0 -525z
m-2110 -2935 l0 -1060 -150 0 -150 0 0 1060 0 1060 150 0 150 0 0 -1060z"/>
<path d="M600 4370 l0 -150 150 0 150 0 0 150 0 150 -150 0 -150 0 0 -150z"/>
<path d="M600 3770 l0 -150 375 0 375 0 0 150 0 150 -375 0 -375 0 0 -150z"/>
<path d="M600 3170 l0 -150 300 0 300 0 0 150 0 150 -300 0 -300 0 0 -150z"/>
<path d="M1500 3170 l0 -150 150 0 150 0 0 150 0 150 -150 0 -150 0 0 -150z"/>
</g>
</svg>
