<?xml version="1.0" standalone="no"?>
<!DOCTYPE svg PUBLIC "-//W3C//DTD SVG 20010904//EN"
 "http://www.w3.org/TR/2001/REC-SVG-20010904/DTD/svg10.dtd">
<svg version="1.0" xmlns="http://www.w3.org/2000/svg"
 width="512.000000pt" height="512.000000pt" viewBox="0 0 512.000000 512.000000"
 preserveAspectRatio="xMidYMid meet">

<g transform="translate(0.000000,512.000000) scale(0.100000,-0.100000)"
fill="#000000" stroke="none">
<path d="M78 4189 c-23 -12 -46 -35 -58 -59 -19 -38 -20 -58 -20 -520 0 -462
1 -482 20 -520 23 -46 81 -80 134 -80 111 0 228 -50 311 -134 71 -71 110 -147
127 -247 23 -131 -23 -277 -118 -379 -74 -79 -214 -140 -320 -140 -53 0 -111
-34 -134 -80 -19 -38 -20 -58 -20 -520 0 -462 1 -482 20 -520 13 -26 34 -47
60 -60 38 -19 58 -20 580 -20 l540 0 0 240 c0 217 2 245 19 278 22 43 84 82
130 82 51 0 108 -35 131 -80 18 -36 20 -58 20 -280 l0 -240 1750 0 c1735 0
1751 0 1790 20 26 13 47 34 60 60 20 39 20 56 20 1570 0 1514 0 1531 -20 1570
-13 26 -34 47 -60 60 -39 20 -55 20 -1785 20 l-1745 0 0 -240 c0 -268 -4 -290
-61 -331 -45 -32 -125 -33 -165 -3 -69 51 -69 50 -72 325 l-3 249 -547 0
c-525 -1 -549 -2 -584 -21z m2884 -590 c86 -19 158 -59 223 -124 259 -258 118
-695 -244 -757 -141 -24 -281 22 -386 127 -178 177 -178 454 -1 630 111 111
258 156 408 124z m1178 -9 c69 -35 99 -125 64 -192 -9 -18 -290 -442 -624
-942 -652 -978 -627 -946 -711 -946 -50 0 -106 36 -130 82 -43 84 -70 36 608
1053 661 992 639 963 721 964 18 1 51 -8 72 -19z m-2720 -300 c70 -36 80 -70
80 -280 0 -161 -2 -185 -20 -220 -23 -45 -80 -80 -130 -80 -50 0 -107 35 -130
80 -18 35 -20 58 -20 222 1 209 8 233 76 274 48 29 92 30 144 4z m0 -900 c70
-36 80 -70 80 -280 0 -210 -10 -244 -80 -280 -51 -26 -93 -25 -142 2 -70 39
-78 69 -78 278 0 161 2 185 20 220 37 73 124 99 200 60z m2742 9 c86 -19 158
-59 223 -124 259 -258 118 -695 -244 -757 -141 -24 -281 22 -386 127 -178 177
-178 454 -1 630 111 111 258 156 408 124z"/>
<path d="M2798 3289 c-43 -22 -78 -81 -78 -129 0 -74 76 -150 149 -150 77 0
151 74 151 150 0 50 -35 107 -80 130 -49 25 -94 25 -142 -1z"/>
<path d="M3998 2089 c-43 -22 -78 -81 -78 -129 0 -74 76 -150 149 -150 77 0
151 74 151 150 0 50 -35 107 -80 130 -49 25 -94 25 -142 -1z"/>
</g>
</svg>
