<?xml version="1.0" standalone="no"?>
<!DOCTYPE svg PUBLIC "-//W3C//DTD SVG 20010904//EN"
 "http://www.w3.org/TR/2001/REC-SVG-20010904/DTD/svg10.dtd">
<svg version="1.0" xmlns="http://www.w3.org/2000/svg"
 width="512.000000pt" height="512.000000pt" viewBox="0 0 512.000000 512.000000"
 preserveAspectRatio="xMidYMid meet">

<g transform="translate(0.000000,512.000000) scale(0.100000,-0.100000)"
fill="#000000" stroke="none">
<path d="M2710 4850 l0 -270 -190 0 -190 0 0 -335 0 -335 -170 0 -170 0 0
-1805 0 -1805 -150 0 -150 0 0 1470 0 1470 -655 0 -655 0 0 -1470 0 -1470
-190 0 -190 0 0 -150 0 -150 2560 0 2560 0 0 150 0 150 -190 0 -190 0 0 800 0
800 -860 0 -860 0 0 -800 0 -800 -150 0 -150 0 0 950 0 950 505 0 505 0 0 855
0 855 -170 0 -170 0 0 335 0 335 -190 0 -190 0 0 270 0 270 -150 0 -150 0 0
-270z m300 -790 l0 -150 -150 0 -150 0 0 150 0 150 150 0 150 0 0 -150z m-340
-670 l0 -150 -150 0 -150 0 0 150 0 150 150 0 150 0 0 -150z m670 0 l0 -150
-150 0 -150 0 0 150 0 150 150 0 150 0 0 -150z m-2160 -670 l0 -150 -150 0
-150 0 0 150 0 150 150 0 150 0 0 -150z m1490 0 l0 -150 -150 0 -150 0 0 150
0 150 150 0 150 0 0 -150z m670 0 l0 -150 -150 0 -150 0 0 150 0 150 150 0
150 0 0 -150z m-2160 -720 l0 -150 -150 0 -150 0 0 150 0 150 150 0 150 0 0
-150z m2510 -1100 l0 -600 -150 0 -150 0 0 600 0 600 150 0 150 0 0 -600z
m670 0 l0 -600 -150 0 -150 0 0 600 0 600 150 0 150 0 0 -600z m-3182 388 l3
-148 -151 0 -150 0 0 150 0 151 148 -3 147 -3 3 -147z m2 -718 l0 -150 -150 0
-150 0 0 150 0 150 150 0 150 0 0 -150z"/>
</g>
</svg>