<?xml version="1.0" standalone="no"?>
<!DOCTYPE svg PUBLIC "-//W3C//DTD SVG 20010904//EN"
 "http://www.w3.org/TR/2001/REC-SVG-20010904/DTD/svg10.dtd">
<svg version="1.0" xmlns="http://www.w3.org/2000/svg"
 width="512.000000pt" height="512.000000pt" viewBox="0 0 512.000000 512.000000"
 preserveAspectRatio="xMidYMid meet">

<g transform="translate(0.000000,512.000000) scale(0.100000,-0.100000)"
fill="#000000" stroke="none">
<path d="M558 4251 c-145 -47 -255 -161 -292 -306 -14 -52 -16 -194 -16 -1130
0 -1098 -1 -1079 35 -1193 7 -22 6 -22 -92 -22 -88 0 -104 -3 -134 -23 -56
-37 -60 -56 -56 -212 3 -93 10 -158 21 -192 38 -121 157 -244 283 -295 l58
-23 2195 0 2195 0 58 23 c126 51 239 168 281 292 14 40 20 93 23 195 4 156 0
175 -56 212 -30 20 -46 23 -134 23 -98 0 -99 0 -92 23 36 115 35 89 33 1217
l-3 1095 -23 55 c-46 113 -140 207 -249 252 l-58 23 -1960 2 c-1879 2 -1962 1
-2017 -16z m3960 -240 c47 -24 77 -56 97 -103 13 -33 15 -163 15 -1095 0
-1007 -1 -1060 -19 -1098 -22 -48 -54 -79 -103 -100 -33 -13 -246 -15 -1948
-15 -1702 0 -1915 2 -1948 15 -49 21 -81 52 -103 100 -18 38 -19 91 -19 1100
0 1009 1 1062 19 1100 20 44 50 74 96 98 27 15 219 16 1953 17 1871 0 1924 -1
1960 -19z m362 -2688 c-1 -88 -55 -172 -134 -209 l-51 -24 -2135 0 -2135 0
-51 24 c-79 37 -133 121 -134 209 l0 37 2320 0 2320 0 0 -37z"/>
<path d="M2420 3852 c-50 -24 -76 -81 -61 -131 6 -20 22 -48 37 -62 25 -23 31
-24 164 -24 133 0 139 1 164 24 15 14 31 42 37 62 10 31 9 43 -7 76 -29 58
-68 73 -194 73 -80 0 -113 -4 -140 -18z"/>
</g>
</svg>