<?xml version="1.0" standalone="no"?>
<!DOCTYPE svg PUBLIC "-//W3C//DTD SVG 20010904//EN"
 "http://www.w3.org/TR/2001/REC-SVG-20010904/DTD/svg10.dtd">
<svg version="1.0" xmlns="http://www.w3.org/2000/svg"
 width="512.000000pt" height="512.000000pt" viewBox="0 0 512.000000 512.000000"
 preserveAspectRatio="xMidYMid meet">

<g transform="translate(0.000000,512.000000) scale(0.100000,-0.100000)"
fill="#000000" stroke="none">
<path d="M2407 4414 c-4 -4 -7 -39 -7 -78 0 -87 -26 -147 -81 -183 -80 -53
-151 -51 -251 8 -28 16 -52 29 -53 27 -15 -15 -153 -264 -149 -269 2 -4 28
-21 58 -38 157 -88 165 -264 15 -361 -33 -21 -65 -40 -72 -43 -6 -2 21 -59 68
-140 l79 -136 66 36 c113 64 219 47 285 -46 27 -38 30 -52 34 -127 l3 -84 159
0 159 0 0 73 c0 87 23 143 71 179 79 59 152 60 253 3 l62 -34 79 136 c43 75
74 138 69 140 -6 2 -36 19 -67 39 -144 90 -149 262 -12 351 95 62 95 42 9 188
-42 72 -77 131 -79 133 -1 2 -25 -11 -53 -27 -97 -57 -158 -61 -239 -15 -63
36 -87 83 -93 184 l-5 85 -151 3 c-82 1 -153 -1 -157 -4z m220 -545 c35 -13
80 -55 100 -92 19 -37 19 -127 0 -164 -31 -59 -102 -103 -167 -103 -65 0 -136
44 -167 103 -19 37 -19 127 0 164 19 36 65 79 97 92 34 13 102 13 137 0z"/>
<path d="M898 3649 c-183 -27 -342 -164 -404 -349 -18 -52 -19 -106 -19 -1040
l0 -985 2085 0 2085 0 3 960 c2 933 2 962 -18 1040 -44 173 -166 300 -350 363
-38 13 -124 16 -530 19 -392 3 -482 1 -468 -9 9 -7 37 -25 63 -41 61 -36 92
-100 77 -158 l-10 -39 382 0 c436 0 440 -1 493 -81 l28 -43 3 -828 c2 -565 -1
-841 -8 -868 -20 -76 125 -70 -1750 -70 -1870 0 -1729 -5 -1749 68 -13 45 -14
1615 -2 1681 11 57 37 91 91 119 44 22 50 22 426 22 l382 0 -10 39 c-15 58 16
122 77 158 26 16 54 33 63 40 14 10 -77 12 -433 11 -247 0 -476 -4 -507 -9z"/>
<path d="M977 3233 c-2 -5 -2 -353 1 -775 l5 -768 1578 0 1579 0 0 775 0 775
-414 0 -415 0 -33 -62 c-40 -77 -95 -133 -136 -141 -40 -8 -76 3 -161 49 -91
50 -97 45 -103 -79 -4 -103 -23 -143 -78 -172 -42 -22 -438 -22 -480 0 -55 28
-73 69 -79 173 -8 124 -16 130 -102 77 -48 -29 -78 -39 -119 -43 -76 -5 -112
20 -169 121 l-43 77 -413 0 c-228 0 -416 -3 -418 -7z m950 -555 c15 -14 23
-33 23 -56 0 -32 -14 -49 -140 -176 l-139 -141 139 -141 c123 -125 140 -146
140 -175 0 -45 -33 -79 -79 -79 -32 0 -50 15 -215 179 -168 167 -180 182 -180
216 0 34 12 49 180 216 162 161 183 179 214 179 21 0 43 -8 57 -22z m840 7
c50 -35 45 -50 -132 -406 -92 -184 -174 -342 -183 -351 -24 -29 -86 -24 -111
8 -12 15 -21 37 -21 50 0 28 313 659 343 692 24 26 72 29 104 7z m695 -163
c234 -234 233 -200 11 -425 -93 -92 -177 -173 -188 -179 -70 -39 -147 31 -111
100 8 15 73 85 145 157 l131 129 -140 141 c-129 130 -140 144 -140 178 0 49
28 77 77 77 34 0 48 -12 215 -178z"/>
<path d="M322 998 c3 -80 9 -112 26 -144 29 -56 77 -103 132 -128 l45 -21
2035 0 2035 0 45 21 c55 25 103 72 132 128 17 32 23 64 26 144 l4 102 -785 0
-786 0 -50 -82 c-57 -96 -80 -119 -141 -147 -43 -20 -64 -21 -480 -21 -416 0
-437 1 -480 21 -61 28 -84 51 -141 147 l-50 82 -786 0 -785 0 4 -102z"/>
<path d="M2090 1055 c55 -79 27 -75 475 -75 452 0 421 -5 465 80 l20 40 -495
0 -496 0 31 -45z"/>
</g>
</svg>
