<?xml version="1.0" standalone="no"?>
<!DOCTYPE svg PUBLIC "-//W3C//DTD SVG 20010904//EN"
 "http://www.w3.org/TR/2001/REC-SVG-20010904/DTD/svg10.dtd">
<svg version="1.0" xmlns="http://www.w3.org/2000/svg"
 width="512.000000pt" height="512.000000pt" viewBox="0 0 512.000000 512.000000"
 preserveAspectRatio="xMidYMid meet">

<g transform="translate(0.000000,512.000000) scale(0.100000,-0.100000)"
fill="#000000" stroke="none">
<path d="M1337 5109 c-59 -14 -116 -47 -162 -95 -53 -54 -83 -114 -95 -190
-13 -80 -13 -4448 0 -4528 5 -32 19 -78 31 -102 29 -61 103 -132 169 -163 l55
-26 1225 0 1225 0 55 26 c66 31 140 102 169 163 12 24 26 70 31 102 13 80 13
4448 0 4528 -19 117 -92 215 -198 264 l-57 27 -1205 2 c-683 0 -1221 -3 -1243
-8z m1617 -255 c19 -18 19 -20 6 -45 -10 -18 -25 -19 -400 -19 -379 0 -390 1
-400 20 -8 14 -8 26 0 40 10 19 21 20 395 20 335 0 386 -2 399 -16z m856
-2071 c0 -991 -4 -1783 -9 -1778 -14 16 -551 952 -551 961 0 5 18 44 39 89 49
100 68 156 82 248 14 89 6 261 -16 342 -35 131 -120 277 -220 378 -149 148
-373 242 -561 235 l-73 -3 151 -260 c202 -347 221 -398 199 -518 -32 -173
-168 -298 -341 -314 -115 -11 -259 52 -323 142 -17 25 -100 164 -184 308 -83
144 -155 262 -160 261 -4 0 -27 -38 -50 -85 -114 -226 -114 -506 0 -734 134
-271 394 -439 712 -461 l90 -7 240 -415 c132 -229 255 -442 273 -474 l33 -58
-915 0 -916 0 0 1965 0 1965 1250 0 1250 0 0 -1787z m-1200 -2273 c66 -18 120
-93 120 -166 0 -107 -111 -195 -210 -165 -135 40 -174 199 -73 294 46 43 99
55 163 37z"/>
</g>
</svg>
