<?xml version="1.0" standalone="no"?>
<!DOCTYPE svg PUBLIC "-//W3C//DTD SVG 20010904//EN"
 "http://www.w3.org/TR/2001/REC-SVG-20010904/DTD/svg10.dtd">
<svg version="1.0" xmlns="http://www.w3.org/2000/svg"
 width="512.000000pt" height="512.000000pt" viewBox="0 0 512.000000 512.000000"
 preserveAspectRatio="xMidYMid meet">

<g transform="translate(0.000000,512.000000) scale(0.100000,-0.100000)"
fill="#000000" stroke="none">
<path d="M1521 5105 c-178 -39 -349 -172 -428 -335 -79 -160 -74 -2 -71 -2245
l3 -2000 27 -81 c67 -195 217 -345 412 -412 l81 -27 987 -3 c1108 -3 1065 -5
1217 70 120 59 220 160 278 278 78 159 73 5 73 2210 0 2205 5 2051 -73 2210
-80 165 -250 296 -433 335 -100 21 -1975 21 -2073 0z m2289 -2325 l0 -1480
-1250 0 -1250 0 0 1480 0 1480 1250 0 1250 0 0 -1480z m-1130 -1811 c103 -46
161 -133 168 -250 4 -66 1 -84 -20 -130 -98 -214 -396 -234 -513 -35 -92 158
-19 363 150 424 52 18 165 14 215 -9z"/>
</g>
</svg>
