<?xml version="1.0" standalone="no"?>
<!DOCTYPE svg PUBLIC "-//W3C//DTD SVG 20010904//EN"
 "http://www.w3.org/TR/2001/REC-SVG-20010904/DTD/svg10.dtd">
<svg version="1.0" xmlns="http://www.w3.org/2000/svg"
 width="512.000000pt" height="512.000000pt" viewBox="0 0 512.000000 512.000000"
 preserveAspectRatio="xMidYMid meet">

<g transform="translate(0.000000,512.000000) scale(0.100000,-0.100000)"
fill="#000000" stroke="none">
<path d="M2188 5104 c-34 -18 -46 -42 -87 -166 -18 -54 -35 -98 -37 -98 -2 0
-50 23 -107 51 -155 79 -171 75 -309 -69 -105 -110 -106 -118 -35 -266 l55
-115 -119 -42 c-162 -57 -159 -52 -159 -239 0 -187 -3 -182 159 -239 l119 -42
-55 -115 c-71 -148 -70 -156 35 -266 138 -144 154 -148 309 -69 57 28 105 51
107 51 2 0 19 -44 37 -97 60 -182 60 -183 253 -183 129 0 136 1 165 25 21 18
37 49 57 108 15 45 33 96 41 114 l13 32 97 -45 c54 -25 109 -49 123 -53 48
-15 83 6 183 107 119 121 119 123 47 278 -28 59 -47 111 -43 114 4 4 52 22
107 40 59 20 111 43 130 60 l31 28 0 152 0 152 -31 28 c-19 17 -71 40 -130 60
-55 18 -103 36 -107 40 -4 3 15 55 43 114 72 155 72 157 -47 278 -100 101
-135 122 -183 107 -14 -4 -69 -28 -123 -53 l-97 -45 -13 32 c-8 18 -26 69 -41
114 -20 59 -36 90 -57 108 -29 24 -35 25 -167 25 -102 -1 -144 -5 -164 -16z
m233 -320 c55 -158 68 -180 114 -193 43 -12 77 0 226 74 l91 46 23 -21 23 -22
-64 -133 c-35 -73 -64 -143 -64 -156 0 -13 9 -38 19 -55 20 -33 26 -36 201
-97 95 -33 95 -33 95 -67 0 -34 0 -34 -95 -67 -175 -61 -181 -64 -201 -97 -10
-17 -19 -42 -19 -55 0 -13 29 -83 64 -156 l64 -133 -23 -22 -23 -21 -91 46
c-149 74 -183 86 -226 74 -46 -13 -59 -35 -114 -193 l-44 -127 -31 3 c-30 3
-32 6 -77 136 -52 146 -59 159 -105 178 -39 17 -56 12 -206 -59 l-116 -55 -21
22 -21 23 60 127 c96 202 88 221 -120 296 -135 48 -135 48 -135 80 0 32 0 32
135 80 208 75 216 94 120 296 l-60 127 21 23 21 22 116 -55 c151 -71 166 -76
207 -58 44 18 56 39 104 178 22 65 43 123 46 128 4 5 19 9 34 9 28 0 30 -5 72
-126z"/>
<path d="M2242 4462 c-66 -24 -118 -65 -159 -126 -43 -63 -56 -116 -51 -201 8
-116 71 -211 176 -262 48 -24 69 -28 137 -28 102 1 166 27 230 96 66 70 88
127 88 219 0 92 -22 149 -88 219 -83 89 -220 123 -333 83z m142 -206 c93 -39
87 -164 -8 -196 -64 -21 -136 33 -136 100 0 36 30 81 63 95 40 18 41 18 81 1z"/>
<path d="M3895 4038 c-32 -18 -42 -36 -82 -150 -20 -60 -41 -108 -46 -108 -5
0 -58 23 -118 51 -146 68 -147 68 -277 -65 -125 -126 -125 -130 -52 -276 28
-55 50 -104 50 -109 0 -4 -42 -23 -92 -41 -184 -64 -188 -68 -188 -244 0 -152
11 -179 82 -210 29 -13 86 -34 126 -47 39 -12 72 -26 72 -30 0 -4 -22 -53 -50
-110 -27 -57 -50 -118 -50 -135 0 -37 35 -88 116 -165 113 -108 128 -110 273
-39 56 27 105 50 109 50 4 0 20 -38 36 -84 65 -192 70 -196 252 -196 176 0
186 8 248 198 15 45 32 82 37 82 5 0 54 -22 109 -50 146 -73 150 -73 276 52
133 130 133 131 65 276 -28 59 -51 113 -51 118 0 6 18 16 41 23 22 7 77 26
120 43 106 40 109 47 109 227 0 140 0 141 -27 170 -19 19 -62 40 -135 66 -60
20 -108 41 -108 45 0 4 23 56 50 115 54 116 57 132 36 173 -17 32 -171 185
-203 201 -35 18 -55 13 -167 -39 -59 -27 -111 -50 -115 -50 -5 0 -25 48 -46
108 -26 74 -46 115 -66 135 -29 27 -30 27 -172 27 -88 0 -150 -5 -162 -12z
m235 -329 c74 -217 96 -226 302 -127 l129 62 21 -22 22 -21 -62 -129 c-65
-134 -72 -164 -47 -211 16 -33 40 -45 192 -97 112 -39 113 -39 113 -70 0 -32
0 -32 -135 -79 -212 -75 -221 -96 -123 -297 60 -125 61 -128 43 -148 -10 -11
-23 -20 -29 -20 -6 0 -68 28 -138 61 -191 92 -215 81 -288 -135 l-43 -126 -33
0 c-19 0 -34 1 -34 3 0 1 -21 61 -46 132 -74 210 -91 218 -290 124 l-135 -63
-21 22 -22 21 63 135 c93 197 84 218 -109 285 -63 22 -123 43 -132 46 -12 5
-18 18 -18 39 l0 32 128 44 c141 49 192 85 192 136 0 16 -27 85 -60 155 -33
69 -60 131 -60 136 0 6 9 18 20 28 19 17 23 16 147 -44 129 -62 166 -71 206
-49 34 18 43 34 93 176 46 132 47 132 78 132 31 0 32 0 76 -131z"/>
<path d="M3948 3395 c-130 -48 -211 -163 -211 -302 -1 -176 140 -317 318 -317
219 0 370 218 298 430 -22 67 -119 163 -188 187 -59 20 -164 21 -217 2z m178
-226 c33 -31 41 -84 19 -124 -51 -95 -195 -61 -195 45 0 35 6 48 35 77 32 32
40 35 76 30 23 -3 52 -15 65 -28z"/>
<path d="M139 3701 l-29 -29 0 -1432 0 -1432 29 -29 29 -29 716 0 716 0 0
-270 0 -270 -126 0 -126 0 -35 -35 c-32 -32 -35 -40 -30 -77 3 -26 15 -51 31
-67 l26 -26 673 -3 c493 -2 679 1 700 9 58 24 76 116 33 166 -24 28 -27 28
-158 33 l-133 5 0 265 0 265 716 5 c777 5 734 2 765 61 12 23 14 112 14 519 0
539 -1 544 -59 574 -38 20 -64 20 -102 0 -58 -29 -59 -41 -59 -514 l0 -430
-1705 0 -1705 0 0 1280 0 1279 449 3 449 3 26 24 c51 48 40 142 -20 170 -17 8
-182 11 -540 11 l-516 0 -29 -29z m2101 -3331 l0 -160 -212 2 -213 3 -3 158
-3 157 216 0 215 0 0 -160z"/>
<path d="M594 3294 c-62 -30 -59 26 -59 -1054 0 -825 2 -991 14 -1013 32 -60
-53 -57 1475 -57 1184 0 1402 2 1431 14 65 28 66 28 63 492 l-3 417 -55 12
c-81 16 -113 37 -222 143 -108 104 -152 164 -169 226 -14 50 -14 152 -1 187
10 24 7 28 -41 60 -109 72 -147 158 -147 330 l0 106 -37 6 c-21 4 -53 9 -70
13 -26 5 -33 3 -33 -9 0 -31 -97 -123 -160 -151 -60 -27 -62 -28 -248 -24
-172 3 -190 5 -230 26 -57 31 -114 83 -138 127 -18 34 -21 36 -54 28 -118 -27
-237 6 -328 91 l-49 46 -454 0 c-388 0 -459 -3 -485 -16z"/>
</g>
</svg>
