<?xml version="1.0" standalone="no"?>
<!DOCTYPE svg PUBLIC "-//W3C//DTD SVG 20010904//EN"
 "http://www.w3.org/TR/2001/REC-SVG-20010904/DTD/svg10.dtd">
<svg version="1.0" xmlns="http://www.w3.org/2000/svg"
 width="512.000000pt" height="512.000000pt" viewBox="0 0 512.000000 512.000000"
 preserveAspectRatio="xMidYMid meet">

<g transform="translate(0.000000,512.000000) scale(0.100000,-0.100000)"
fill="#000000" stroke="none">
<path d="M2445 5110 c-226 -46 -412 -210 -488 -430 l-22 -65 -3 -1530 c-2
-1514 -2 -1530 18 -1563 11 -18 34 -41 52 -52 37 -22 107 -27 141 -8 12 6 157
113 322 237 l300 226 925 5 c923 5 925 5 990 27 192 66 337 209 408 405 l27
73 0 1080 0 1080 -23 75 c-31 99 -72 168 -144 246 -77 81 -162 137 -263 172
l-80 27 -1060 2 c-583 0 -1078 -3 -1100 -7z m1920 -801 c53 -15 101 -67 110
-119 5 -32 2 -50 -17 -87 -44 -89 23 -83 -939 -83 l-846 0 -33 23 c-38 26 -70
80 -70 120 0 62 49 129 106 147 45 13 1640 12 1689 -1z m43 -659 c45 -28 76
-97 67 -151 -9 -52 -58 -104 -112 -118 -30 -8 -278 -11 -866 -9 l-824 3 -37
29 c-89 67 -85 190 7 246 31 19 57 20 882 20 836 0 851 0 883 -20z m-968 -638
c107 -53 107 -206 0 -264 -33 -17 -59 -18 -402 -16 -352 3 -368 4 -394 24 -71
53 -92 130 -52 198 45 76 46 76 453 76 323 0 364 -2 395 -18z"/>
<path d="M805 2694 c-90 -19 -236 -90 -301 -146 -116 -99 -208 -246 -239 -381
-16 -72 -22 -238 -10 -293 61 -272 248 -478 499 -551 43 -13 92 -23 110 -24
17 -1 -11 -10 -63 -20 -125 -24 -179 -43 -285 -97 -181 -92 -325 -241 -416
-427 -72 -147 -91 -233 -97 -451 -5 -170 -4 -183 16 -222 14 -28 35 -49 61
-62 39 -20 53 -20 884 -18 835 3 845 3 872 24 66 49 69 59 68 247 -1 263 -42
416 -159 592 -155 232 -396 380 -685 421 l-55 8 55 7 c278 38 510 252 581 539
29 114 23 270 -14 377 -57 167 -181 320 -320 398 -152 84 -343 114 -502 79z"/>
</g>
</svg>
